<?xml version="1.0" encoding="UTF-8" standalone="yes"?>
<svg version="1.2" baseProfile="tiny-ps" viewBox="0 0 300 300" xmlns="http://www.w3.org/2000/svg">
  <title>bimi-svg-tiny-12-ps</title>
  <g>
    <g fill="#fffffd" transform="matrix(.1 0 0 -.1 0 300)">
      <path d="M0 1500V0h3000v3000H0V1500z"/>
    </g>
    <g fill="#d2fa71" transform="matrix(.1 0 0 -.1 0 300)">
      <path d="m607 2740-27-21v-430l31-39 31-38-10-19c-6-10-20-27-31-37l-21-19V273l23-21c13-12 29-22 35-22h12v-14c0-8 12-28 26-45l26-31h617l28 24 28 24 3 139 3 138-25 34-25 34 24 29 25 30v445l238 6 237 6 70 15c82 17 164 45 224 75l43 22-7 39c-4 22-4 43-1 49l6 9 42-11 42-10 32 37c18 21 51 72 73 115l40 77 20 73c11 41 26 121 33 178l12 103-12 113c-15 140-33 210-81 312l-38 80-60 80c-34 44-97 115-141 157l-80 77-84 40c-46 22-112 48-148 57l-65 17-570 4-571 4-27-21zm1083-680 10-15v-111l-17-49-16-49-41-41-41-40-45-14c-25-7-71-16-102-19l-58-5v365l150-4 151-3 9-15z"/>
    </g>
    <g fill="#c3c9b8" transform="matrix(.1 0 0 -.1 0 300)">
      <path d="m608 2737-27-24v-433l19-10 20-11v-14c0-8 8-19 18-25l17-11-12-5c-7-3-13-12-13-19 0-8-11-22-25-33l-25-20V273l23-21c13-12 29-22 35-22h12v-14c0-8 12-28 26-45l26-31h617l28 24 28 24 3 139 3 138-25 34-25 34 24 29 25 30v445l238 6 237 6 70 15c82 17 164 45 224 75l43 22-7 39c-4 22-4 43-1 49l6 9 42-11 42-10 32 37c18 21 51 73 73 115l40 77 20 75c11 41 25 115 32 164l12 90-7 95c-14 193-58 331-149 467l-50 75-90 94c-50 52-97 94-104 94s-13 4-13 8c0 10-130 75-172 87-5 2-10 4-13 5-6 3-6 3-60 14-22 5-49 11-60 14-11 2-270 6-575 9l-555 4-27-24zm841-157c-12-16-28-31-36-34-7-3-13-10-13-16v-10h145l92-19 92-19 70-37 70-37 42-45 41-44 29-63 29-63 15-79 15-79 31-45 31-45-29 27-29 28-11-74-10-74-24-49-23-48-53-52-52-51-98-48c-54-27-102-47-107-46-5 2-42-4-83-13-42-8-87-14-102-14l-26 1 65 12c140 27 274 79 339 134l35 29-62 12c-34 7-62 14-62 15 0 2 34 4 75 4h75l16 13c9 7 27 36 42 63l26 51 4 85 4 85-11 60-11 60-35 71c-19 38-43 78-54 88l-20 19 5-49 6-49-11-25-10-25-1 45v45l-19 40-18 40-36 32-37 32-63 20c-36 11-102 25-147 32l-83 12-91-6-91-6-60-16c-33-9-80-26-105-37l-45-22-52-52-52-51-18-59-18-59v-140c0-77 4-261 9-409l9-269 30 37c27 34 106 96 122 96 4 0-15-17-42-38l-48-39-30-54-30-54 4-340c1-187 5-342 7-344s13 7 24 21c20 27 114 93 147 104l18 7-40-30c-56-41-94-88-123-152l-25-55-5-98-5-98h-66l6 268 5 267-39 64-38 64-51 41c-28 22-60 47-70 53l-19 13 27-10c52-18 109-51 147-85l38-35 7 103c4 56 7 217 7 357v255l-7 20c-5 11-25 42-46 70l-38 50-15 44c-8 25-15 52-15 60v16l24-50c13-27 36-62 52-77l29-27v267l-1 267-18 33c-9 18-34 52-54 75l-37 42 25-20c45-36 63-57 90-107l27-49 26 40 27 40 54 41 55 41 53 21c29 11 91 29 136 39l84 19 32 19c18 11 41 29 51 41 27 29 29 24 4-10zm213-506 36-6v-82c0-44-3-85-6-91-4-5-7-12-8-15-3-17-21-48-36-64-10-11-18-23-18-26 0-7-86-52-110-58-18-4-40-8-97-17l-43-8v373h123c67 0 138-3 159-6zm-239-551c-7-2-21-2-30 0l-18 5h60l-12-5z"/>
    </g>
    <g fill="#a7c94b" transform="matrix(.1 0 0 -.1 0 300)">
      <path d="M614 2743c-6-5-16-18-23-30l-11-22v-388l36-47 35-46-20-29c-11-15-27-34-36-41l-15-12V299l15-28 14-29 32-11 32-11h558l30 15 30 16 9 25 10 25v206l-20 26c-25 31-25 33 0 64l20 26v507h435l90 16 89 15 76 30c41 15 86 36 98 45l24 16-7 45-7 46 37-7c20-4 42-9 50-12l13-5 37 48c20 26 54 84 76 128l39 80 21 80 22 80 1 170 1 170-18 77c-38 160-107 287-214 388-102 98-169 138-298 181l-70 24-590 2-590 3-11-7zm835-163c-12-16-28-31-36-34-7-3-13-10-13-16v-10h145l92-19 92-19 70-37 70-37 42-45 41-44 29-63 29-63 15-79 15-79 31-45 31-45-29 27-29 28-11-74-10-74-24-49-23-48-53-52-52-51-98-48c-54-27-102-47-107-46-5 2-42-4-83-13-42-8-87-14-102-14l-26 1 65 12c140 27 274 79 339 134l35 29-62 12c-34 7-62 14-62 15 0 2 34 4 75 4h75l16 13c9 7 27 36 42 63l26 51 4 85 4 85-11 60-11 60-35 71c-19 38-43 78-54 88l-20 19 5-49 6-49-11-25-10-25-1 45v45l-19 40-18 40-36 32-37 32-63 20c-36 11-102 25-147 32l-83 12-91-6-91-6-60-16c-33-9-80-26-105-37l-45-22-52-52-52-51-18-59-18-59v-140c0-77 4-261 9-409l9-269 30 37c27 34 106 96 122 96 4 0-15-17-42-38l-48-39-30-54-30-54 4-340c1-187 5-342 7-344s13 7 24 21c20 27 114 93 147 104l18 7-40-30c-56-41-94-88-123-152l-25-55-5-98-5-98h-66l6 268 5 267-39 64-38 64-51 41c-28 22-60 47-70 53l-19 13 27-10c52-18 109-51 147-85l38-35 7 103c4 56 7 217 7 357v255l-7 20c-5 11-25 42-46 70l-38 50-15 44c-8 25-15 52-15 60v16l24-50c13-27 36-62 52-77l29-27v267l-1 267-18 33c-9 18-34 52-54 75l-37 42 25-20c45-36 63-57 90-107l27-49 26 40 27 40 54 41 55 41 53 21c29 11 91 29 136 39l84 19 32 19c18 11 41 29 51 41 27 29 29 24 4-10zm179-430 33-12 19-39 20-38v-156l-19-40c-24-51-61-90-110-115l-39-19-61-10-62-10-49 6-50 6v450l143-6 142-5 33-12zm-205-627c-7-2-21-2-30 0l-18 5h60l-12-5z"/>
    </g>
    <g fill="#8cbd0b" transform="matrix(.1 0 0 -.1 0 300)">
      <path d="m612 2734-22-15v-426l30-38c17-21 30-43 30-48 0-6-12-24-27-40l-28-28-5-915-5-914 7-28 8-29 25-11 26-12h596l25 20 25 19 8 111 7 111-27 41-27 40 21 22 21 22v514h365l95 10c116 13 192 33 288 76l73 33-6 44-7 45 9 5c6 4 27 1 48-6l38-11 33 37c64 74 125 218 155 362l13 60-1 135v135l-17 79c-24 109-59 199-108 274l-40 62-85 80-84 79-82 41-82 41-95 19-95 20H634l-22-16zm863-121c-10-15-28-40-42-54l-24-26 90-7 90-7 75-19c134-34 222-89 281-174l37-53 24-67c13-37 24-77 24-89s5-40 11-61l11-39 51-50 51-50-30 16c-16 8-41 26-55 39l-26 25-6-68-6-68-25-53-26-54-52-52-52-52-91-44c-103-50-121-67-140-128l-14-43v25l-1 26 19 37 19 38-17-6c-46-14-192-35-241-34l-55 1 110 18c179 28 319 80 396 144l28 24-49 6c-49 7-126 33-118 41 2 3 20 0 39-5 18-6 56-10 84-10h50l25 13 25 12 30 60 30 60v190l-14 50c-17 60-51 131-80 165l-20 25-1-45c0-50-16-116-29-125l-9-5 9 38 9 37-6 42-6 43-29 45-29 46-55 25-54 25-83 15-83 16-135-4-135-4-73-26-73-26-54-41-53-40-29-58-28-58 1-290c1-159 4-347 8-417l8-128 44 44 44 44 42 20c24 12 61 23 83 26l40 6-42-14c-87-29-158-90-192-166l-21-45v-145c0-80 3-229 7-332l6-188 49 46 49 45 45 21c51 22 72 18 26-6-16-8-52-40-80-71l-51-55-21-58-22-57-5-92-6-93h-67v551l-20 40c-30 58-87 117-155 161-69 43-67 46 9 17l55-20 60-44 59-43 7 256 8 257-7 108-6 108-40 53c-48 63-66 105-74 171l-6 50 11-25c6-14 18-41 26-60s27-50 42-69l28-35 5 245 5 244-19 51-18 51-38 39c-20 22-48 47-62 56l-25 17 23-6c12-3 45-25 72-49l48-44 25-49 24-49 17 29c9 15 35 46 58 69l42 41 60 29 61 30 94 20c114 25 139 37 188 94 42 48 56 53 28 9zm171-466 32-16 11-32c6-17 13-52 17-78l6-48-12-57-12-56-31-43-32-42-58-29-58-29-102-1-102-1-3 229-2 228 157-4 158-4 31-17z"/>
    </g>
    <g fill="#648809" transform="matrix(.1 0 0 -.1 0 300)">
      <path d="m2221 2446 40-76 26-97 26-98 1-165 1-165-23-88-22-88-35-75c-19-42-51-98-71-126l-37-50-54 7-54 7 7-49 6-49-69-32c-38-18-105-42-149-53l-79-22-257-4-258-5V653l-20-18c-25-23-25-36 0-68l20-25V320l-22-5c-13-3-155-4-316-3l-292 3v-44l26-20 27-21h608l23 23 23 23 7 108 7 108-26 40-27 40 21 22 21 22v511l243 5 242 5 95 23 95 22 73 34c39 18 72 36 72 41 0 4-4 22-9 40l-9 32 12 10 12 10 39-11 38-12 33 37c17 21 48 68 68 105l35 68 25 85 24 85 12 99 12 99-7 80c-19 222-90 411-194 510l-30 29 40-77zm-1001-460v-276h80v462l158-4 157-4 23-12 22-13v9c0 16-66 71-105 88l-40 17-147 5-148 5v-277z"/>
    </g>
  </g>
</svg>